Coordinates
version=1
nRows=32
nColumns=22
inDegrees=yes

Units are S.I. units (second, meters, Newtons, ...)
If the header above contains a line with 'inDegrees', this indicates whether rotational values are in degrees (yes) or radians (no).

endheader
time	pelvis_tilt	pelvis_list	pelvis_rotation	pelvis_tx	pelvis_ty	pelvis_tz	hip_flexion_r	hip_adduction_r	hip_rotation_r	knee_angle_r	ankle_angle_r	subtalar_angle_r	hip_flexion_l	hip_adduction_l	hip_rotation_l	knee_angle_l	ankle_angle_l	subtalar_angle_l	lumbar_extension	lumbar_bending	lumbar_rotation
      2.00000000	     -5.99163755	      4.02596340	    -14.66655519	      0.19918001	      0.91914185	      0.18050412	     47.59560447	     -4.48378482	    -15.02103067	    -28.57661214	     -3.47037914	     15.48180315	      3.98541855	      6.03254627	     -1.89753256	    -48.23610532	     17.77829553	      5.09142116	     -5.11075852	      0.70793771	     -6.20815834
      2.01000000	     -5.82885124	      3.94234000	    -14.62112105	      0.21918983	      0.91845422	      0.18785477	     47.50387730	     -4.33964882	    -15.32789403	    -30.26001719	     -2.78542211	     11.11254879	      4.40731440	      5.85519871	     -1.32487734	    -51.15564735	     14.76127956	      5.53587151	     -4.81982101	      0.68098150	     -6.30539184
      2.02000000	     -5.57219735	      3.77322069	    -14.66403602	      0.23883395	      0.91725821	      0.19511259	     47.42600622	     -4.13332942	    -15.39319994	    -32.55269050	     -1.65175945	      6.17504495	      5.05655244	      5.63013233	     -0.84609044	    -54.48358150	     11.85869537	      5.71683631	     -4.73397604	      0.73658312	     -6.24124617
      2.03000000	     -5.21941486	      3.50402290	    -14.80771158	      0.25807981	      0.91558481	      0.20231179	     47.32226381	     -3.82788083	    -15.21647261	    -35.24927157	     -0.13045112	      1.47113404	      5.88342713	      5.31838490	     -0.51433960	    -58.10266009	      9.23105526	      5.65171858	     -4.85979828	      0.88591453	     -6.01755732
      2.04000000	     -4.77295166	      3.10621056	    -15.05395782	      0.27687986	      0.91352877	      0.20948502	     47.13883956	     -3.37989254	    -14.85623975	    -38.14163901	      1.69491876	     -2.42945054	      6.83789314	      4.85803977	     -0.35809670	    -61.89558745	      7.06407132	      5.37257561	     -5.20668187	      1.15432148	     -5.63993878
      2.05000000	     -4.29775102	      2.58139914	    -15.37584791	      0.29516265	      0.91111681	      0.21664014	     46.89585607	     -2.77504467	    -14.40049624	    -41.06337783	      3.73329507	     -5.32244648	      7.95737069	      4.20745586	     -0.35055399	    -65.77260003	      5.52501467	      4.91359433	     -5.70054777	      1.54455090	     -5.12366727
      2.06000000	     -3.78780695	      1.92301497	    -15.75369345	      0.31289233	      0.90855580	      0.22380035	     46.52598155	     -2.00835501	    -13.93234214	    -43.86688665	      5.87991133	     -7.30636726	      9.19540659	      3.34310479	     -0.44780098	    -69.62593770	      4.65702366	      4.31305031	     -6.35208448	      2.04869648	     -4.50292992
      2.07000000	     -3.35677682	      1.17050499	    -16.11864530	      0.33003280	      0.90581056	      0.23088601	     46.11339799	     -1.13256364	    -13.55480058	    -46.46012144	      8.05630974	     -8.56289325	     10.67314814	      2.28279573	     -0.53795885	    -73.40213967	      4.46072233	      3.57671871	     -7.01208094	      2.64895496	     -3.81677369
      2.08000000	     -3.01434908	      0.37832008	    -16.42681882	      0.34660354	      0.90301683	      0.23780681	     45.65586502	     -0.22956263	    -13.31149751	    -48.79044972	     10.21281389	     -9.32134347	     12.39852910	      1.10671716	     -0.53376572	    -77.01472945	      4.80544084	      2.71818586	     -7.64423524	      3.29131086	     -3.12575523
      2.09000000	     -2.79052216	     -0.41694067	    -16.62155685	      0.36266055	      0.90026794	      0.24443341	     45.18021060	      0.62573935	    -13.24843815	    -50.83773717	     12.29624331	     -9.74911382	     14.40763791	     -0.10032275	     -0.32584552	    -80.39172453	      5.48669477	      1.78768285	     -8.18619766	      3.95914336	     -2.47708446
      2.10000000	     -2.67542110	     -1.15750971	    -16.68569244	      0.37826765	      0.89765100	      0.25073582	     44.69925992	      1.36360904	    -13.35250820	    -52.61600332	     14.28568075	     -9.98464774	     16.69183326	     -1.23697156	      0.10953721	    -83.45604904	      6.37894925	      0.81317852	     -8.61098489	      4.58242086	     -1.89687581
      2.11000000	     -2.64465847	     -1.80884449	    -16.61846877	      0.39352271	      0.89526588	      0.25665780	     44.20922100	      1.94082173	    -13.59669281	    -54.15366700	     16.16826808	    -10.10377368	     19.21004279	     -2.20597364	      0.77393018	    -86.13572501	      7.35731257	     -0.13668619	     -8.91867158	      5.13020823	     -1.38210456
      2.12000000	     -2.66556387	     -2.37454905	    -16.44062173	      0.40850246	      0.89321874	      0.26221244	     43.67801011	      2.37046209	    -13.94614911	    -55.46045259	     17.93240762	    -10.16330074	     21.89193939	     -2.97497796	      1.62505994	    -88.37592536	      8.35554593	     -0.93087610	     -9.13639516	      5.60048817	     -0.91224442
      2.13000000	     -2.68106416	     -2.87346173	    -16.17791123	      0.42330333	      0.89163649	      0.26744316	     43.04659010	      2.67381222	    -14.38049490	    -56.55830452	     19.55705624	    -10.20798623	     24.61941227	     -3.54513970	      2.59194626	    -90.12572968	      9.38905792	     -1.47249583	     -9.32480970	      5.99734480	     -0.47206099
      2.14000000	     -2.71542270	     -3.26333191	    -15.90046302	      0.43793737	      0.89047768	      0.27248361	     42.36924960	      2.89826195	    -14.77053619	    -57.46908270	     21.08563219	    -10.22162509	     27.37971051	     -3.90749807	      3.55928952	    -91.35607220	     10.32661801	     -1.93295978	     -9.44140196	      6.26735765	      0.01078055
      2.15000000	     -2.71652654	     -3.59514882	    -15.64495948	      0.45245237	      0.88988052	      0.27737408	     41.57135279	      3.10638873	    -15.09502452	    -58.18053537	     22.49546057	    -10.22375764	     30.04629667	     -4.13308835	      4.46284202	    -92.04900816	     11.22777032	     -2.19736748	     -9.56910652	      6.46299780	      0.56013650
      2.16000000	     -2.68666152	     -3.88435740	    -15.44388467	      0.46685931	      0.88986125	      0.28223240	     40.65370244	      3.34983842	    -15.31811949	    -58.69270205	     23.78965977	    -10.21741753	     32.57435207	     -4.28633043	      5.25018692	    -92.20508343	     12.07711769	     -2.28711991	     -9.71077796	      6.58986898	      1.19473421
      2.17000000	     -2.63127758	     -4.13782176	    -15.31818081	      0.48114462	      0.89040790	      0.28711159	     39.63351420	      3.64769218	    -15.42444192	    -59.02496572	     24.96280652	    -10.19754864	     34.93858544	     -4.42459261	      5.87795786	    -91.83633613	     12.86089364	     -2.24898528	     -9.86936849	      6.66061760	      1.91518226
      2.18000000	     -2.55594159	     -4.35507074	    -15.27556424	      0.49531619	      0.89153912	      0.29205451	     38.50968405	      4.01714198	    -15.38021941	    -59.15908242	     26.00731888	    -10.17225426	     37.11034328	     -4.57378609	      6.33333977	    -90.94749095	     13.59608213	     -2.15518263	    -10.03843022	      6.67499182	      2.71497728
      2.19000000	     -2.47094226	     -4.52639848	    -15.32011111	      0.50935081	      0.89320942	      0.29707431	     37.30971122	      4.44321307	    -15.18250739	    -59.11990163	     26.93359541	    -10.14331149	     39.08419151	     -4.75438144	      6.59635931	    -89.55724124	     14.26509420	     -2.07558755	    -10.20910510	      6.62855774	      3.56993919
      2.20000000	     -2.39374287	     -4.65941872	    -15.44859053	      0.52327296	      0.89538638	      0.30218630	     36.04753516	      4.92022959	    -14.85099497	    -58.90963036	     27.73716695	    -10.09000800	     40.85502394	     -4.99615206	      6.66580957	    -87.67900636	     14.85694413	     -2.03887791	    -10.35890674	      6.53691928	      4.46328028
      2.21000000	     -2.32932867	     -4.74682099	    -15.64920119	      0.53709867	      0.89802366	      0.30735626	     34.73671406	      5.42544194	    -14.38529491	    -58.54405182	     28.43061673	    -10.01299862	     42.41069451	     -5.28692908	      6.54783494	    -85.32720825	     15.35441251	     -2.06327238	    -10.48029436	      6.40036328	      5.36134588
      2.22000000	     -2.26976999	     -4.79326372	    -15.91891389	      0.55085824	      0.90110597	      0.31256661	     33.36850527	      5.92877302	    -13.82561366	    -58.03549324	     28.99150733	     -9.88244015	     43.72394777	     -5.63530970	      6.23191567	    -82.51491929	     15.71981125	     -2.13965907	    -10.58110505	      6.22104150	      6.27200958
      2.23000000	     -2.21986819	     -4.79706895	    -16.21410020	      0.56461322	      0.90456976	      0.31767944	     31.95628109	      6.38965578	    -13.20260996	    -57.40608138	     29.43777045	     -9.69073391	     44.78442377	     -5.97522278	      5.77930681	    -79.25505240	     15.89720624	     -2.22339569	    -10.65046569	      6.01972286	      7.15853313
      2.24000000	     -2.18901234	     -4.76600017	    -16.52254242	      0.57840047	      0.90834305	      0.32269605	     30.50872523	      6.79713596	    -12.55399087	    -56.65943594	     29.79162155	     -9.43346734	     45.59463021	     -6.31242459	      5.18943063	    -75.57256174	     15.82606415	     -2.21480464	    -10.67371053	      5.80986200	      7.96595929
      2.25000000	     -2.17923370	     -4.71223054	    -16.82699772	      0.59226248	      0.91235363	      0.32761240	     29.03445632	      7.14413766	    -11.91685167	    -55.81631856	     30.03887305	     -9.11138351	     46.15008353	     -6.62990599	      4.49529421	    -71.49921949	     15.41352407	     -1.96406913	    -10.64401206	      5.60099068	      8.70524379
      2.26000000	     -2.18767761	     -4.64513356	    -17.11569691	      0.60624118	      0.91654795	      0.33234144	     27.53932278	      7.41841316	    -11.31872011	    -54.89452475	     30.16151529	     -8.72450512	     46.44493657	     -6.89108749	      3.74373835	    -67.07704955	     14.54732034	     -1.29602751	    -10.56711550	      5.41853114	      9.39733054
      2.27000000	     -2.21959908	     -4.56408820	    -17.39984786	      0.62037924	      0.92083513	      0.33692973	     26.04278514	      7.62733186	    -10.75481506	    -53.91936961	     30.14462283	     -8.31180443	     46.48515205	     -7.09832828	      2.93324791	    -62.35875710	     13.19139380	     -0.15163060	    -10.42721070	      5.26061268	     10.02142348
      2.28000000	     -2.25596087	     -4.47280768	    -17.67295447	      0.63473204	      0.92516452	      0.34133473	     24.53550970	      7.75708921	    -10.24313283	    -52.91621841	     30.02313353	     -7.84486076	     46.26392438	     -7.22175841	      2.10117720	    -57.41848207	     11.30174179	      1.52821784	    -10.24028972	      5.13271623	     10.58609735
      2.29000000	     -2.28647203	     -4.36404711	    -17.94745335	      0.64932821	      0.92945720	      0.34554914	     23.02864935	      7.80072714	     -9.77373099	    -51.92208978	     29.82136782	     -7.31715487	     45.79026519	     -7.23894774	      1.28281806	    -52.34590060	      8.89815485	      3.72146526	    -10.01048089	      5.02363353	     11.10385676
      2.30000000	     -2.32928504	     -4.24128142	    -18.21669403	      0.66418461	      0.93358258	      0.34953779	     21.56241388	      7.75844525	     -9.36984485	    -50.97504363	     29.50321172	     -6.69388338	     45.12302549	     -7.13189936	      0.56266310	    -47.25844913	      6.08867972	      6.46688186	     -9.71442357	      4.94782150	     11.58770784
      2.31000000	     -2.36868626	     -4.10515733	    -18.49393424	      0.67930505	      0.93746599	      0.35331314	     20.13604159	      7.63580398	     -9.01236466	    -50.10591975	     29.15775060	     -5.99366486	     44.28609080	     -6.90580921	     -0.01188071	    -42.28731996	      3.04230025	      9.60163360	     -9.36769957	      4.89997037	     12.04990419
